# xmcd CD database file
#
# Track frame offsets:
#	150
#	17756
#	33979
#	51550
#	62674
#	75575
#	89515
#	104587
#	119704
#	130914
#	142751
#	162335
#	177464
#	187760
#	204567
#	217573
#	234579
#	248211
#	266729
#	279118
#	294490
#	309958
#	328671
#
# Disc length: 4589 seconds
#
# Revision: 0
# Processed by: cddbd v1.5PL3 Copyright (c) Steve Scherf et al.
# Submitted via: CDex 1.50beta9
#
DISCID=4911eb17
DTITLE=Musikk for voksne - Litt Country
DYEAR=2004
DGENRE=Country
TTITLE0=I love norwegian country
TTITLE1=Can you forgive me
TTITLE2=Et bedre liv
TTITLE3=Act naturally
TTITLE4=Fult og helt
TTITLE5=Hvor enn jeg går
TTITLE6=Endeless ride
TTITLE7=A little time
TTITLE8=Full fart i Orlando
TTITLE9=I,m left, you're right, she's gone
TTITLE10=Human highway
TTITLE11=Inna mi tid er over
TTITLE12=Blue moon of Kentucky
TTITLE13=The door
TTITLE14=I love you because
TTITLE15=Sola mi er sola di
TTITLE16=One life stand
TTITLE17=Belladen om Morgan Kane
TTITLE18=Regnets rytme
TTITLE19=Stand back
TTITLE20=Du er hele livet
TTITLE21=Take me home, countryroad
TTITLE22=Nei så tjukk du har blitt 2004
EXTD=YEAR: 2004
EXTT0=
EXTT1=
EXTT2=
EXTT3=
EXTT4=
EXTT5=
EXTT6=
EXTT7=
EXTT8=
EXTT9=
EXTT10=
EXTT11=
EXTT12=
EXTT13=
EXTT14=
EXTT15=
EXTT16=
EXTT17=
EXTT18=
EXTT19=
EXTT20=
EXTT21=
EXTT22=
PLAYORDER=
